<svg width="213" height="71" viewBox="0 0 213 71" fill="none" xmlns="http://www.w3.org/2000/svg">
<path d="M38.036 35.906L26.7026 24.5728L11.7026 56.906L3.70183 45.906C-1.36483 39.2393 -0.0792057 33.6667 0.920898 32.3334L11.7194 20.9807L25.8792 6.09412C27.2652 5.08238 29.0747 3.91034 30.3693 3.57262C36.5026 1.97262 45.9249 8.7949 48.3693 12.2393L38.036 35.906Z" fill="#FFFFFE"/>
<path d="M26.702 24.5728C22.1687 20.0394 15.9685 17.9066 11.7188 20.9807L25.8786 6.09412C27.2646 5.08238 29.0741 3.91034 30.3687 3.57262C36.502 1.97262 45.9242 8.7949 48.3687 12.2393L38.0354 35.906L26.702 24.5728Z" fill="url(#paint0_linear_2025_48)"/>
<path d="M28 33.5L39.5 45L53 14.5L52.2541 56.6667H74.6665" stroke="#FFFFFE" stroke-width="3.33333" stroke-linecap="round" stroke-linejoin="round"/>
<path d="M54.7497 14.5309C54.7668 13.5646 53.9973 12.7674 53.0309 12.7503C52.0646 12.7332 51.2674 13.5027 51.2503 14.4691L54.7497 14.5309ZM52.2544 56.6667L50.5047 56.6358C50.4964 57.1052 50.677 57.5583 51.0061 57.8932C51.3351 58.2281 51.7849 58.4167 52.2544 58.4167V56.6667ZM207.5 58.4167H209.25V54.9167H207.5V58.4167ZM51.2503 14.4691L50.5047 56.6358L54.0041 56.6977L54.7497 14.5309L51.2503 14.4691ZM52.2544 58.4167H207.5V54.9167H52.2544V58.4167Z" fill="url(#paint1_linear_2025_48)"/>
<path d="M57.877 52V17.1028H61.4394V52H57.877ZM85.1839 52V38.647C85.1839 37.1929 85.0466 35.8601 84.772 34.6484C84.4973 33.4205 84.053 32.3542 83.4391 31.4494C82.8413 30.5285 82.0577 29.8177 81.0884 29.3168C80.1352 28.816 78.9719 28.5656 77.5986 28.5656C76.3385 28.5656 75.2237 28.7837 74.2543 29.2199C73.3011 29.6561 72.4933 30.2862 71.8309 31.1102C71.1847 31.918 70.6919 32.9035 70.3526 34.0667C70.0134 35.23 69.8437 36.5548 69.8437 38.0411L67.3234 37.4837C67.3234 34.8018 67.7919 32.5481 68.7289 30.7224C69.666 28.8968 70.9585 27.5154 72.6064 26.5784C74.2543 25.6413 76.1446 25.1728 78.2772 25.1728C79.8443 25.1728 81.2095 25.4151 82.3728 25.8998C83.5522 26.3845 84.5458 27.0388 85.3536 27.8628C86.1775 28.6868 86.8399 29.6319 87.3408 30.6982C87.8416 31.7483 88.2051 32.8712 88.4313 34.0667C88.6575 35.2461 88.7706 36.4255 88.7706 37.6049V52H85.1839ZM66.2571 52V25.8271H69.4802V32.2734H69.8437V52H66.2571ZM102.402 52.7028C99.3326 52.7028 96.8042 52.0404 94.817 50.7156C92.846 49.3908 91.6343 47.549 91.1819 45.1902L94.817 44.5844C95.2048 46.0707 96.0853 47.2582 97.4585 48.1468C98.848 49.0192 100.56 49.4554 102.596 49.4554C104.583 49.4554 106.151 49.0434 107.298 48.2195C108.445 47.3794 109.018 46.2404 109.018 44.8025C109.018 43.9947 108.832 43.3403 108.461 42.8395C108.105 42.3225 107.37 41.8459 106.256 41.4097C105.141 40.9735 103.477 40.4565 101.263 39.8587C98.8883 39.2124 97.0304 38.5662 95.6894 37.92C94.3485 37.2737 93.3953 36.5305 92.8298 35.6904C92.2643 34.8341 91.9816 33.7921 91.9816 32.5642C91.9816 31.0779 92.4017 29.7773 93.2418 28.6625C94.0819 27.5316 95.2451 26.6592 96.7315 26.0452C98.2179 25.4151 99.9466 25.1001 101.918 25.1001C103.889 25.1001 105.65 25.4232 107.201 26.0695C108.768 26.6996 110.028 27.5881 110.981 28.7352C111.934 29.8823 112.5 31.2152 112.678 32.7339L109.042 33.3882C108.8 31.8533 108.033 30.6416 106.74 29.7531C105.464 28.8483 103.84 28.3798 101.869 28.3475C100.011 28.299 98.5006 28.6544 97.3374 29.4138C96.1741 30.157 95.5925 31.1506 95.5925 32.3946C95.5925 33.0893 95.8025 33.6871 96.2226 34.1879C96.6426 34.6726 97.402 35.133 98.5006 35.5692C99.6154 36.0055 101.199 36.4821 103.25 36.9991C105.658 37.613 107.548 38.2592 108.921 38.9378C110.295 39.6164 111.272 40.4161 111.854 41.337C112.435 42.2579 112.726 43.3969 112.726 44.754C112.726 47.2259 111.805 49.1727 109.963 50.5944C108.138 52 105.617 52.7028 102.402 52.7028ZM125.686 52.6543C124.119 52.6543 122.746 52.412 121.566 51.9273C120.403 51.4426 119.409 50.7883 118.585 49.9643C117.778 49.1404 117.123 48.2033 116.622 47.1532C116.122 46.0869 115.758 44.964 115.532 43.7846C115.306 42.5891 115.193 41.4016 115.193 40.2222V25.8271H118.779V39.1801C118.779 40.618 118.917 41.9509 119.191 43.1788C119.466 44.4066 119.902 45.481 120.5 46.4019C121.114 47.3067 121.897 48.0094 122.851 48.5103C123.82 49.0111 124.991 49.2615 126.365 49.2615C127.625 49.2615 128.731 49.0434 129.685 48.6072C130.654 48.171 131.462 47.549 132.108 46.7412C132.77 45.9172 133.271 44.9236 133.611 43.7604C133.95 42.581 134.119 41.2562 134.119 39.786L136.64 40.3434C136.64 43.0253 136.171 45.2791 135.234 47.1047C134.297 48.9303 133.005 50.3117 131.357 51.2487C129.709 52.1858 127.819 52.6543 125.686 52.6543ZM134.483 52V45.5537H134.119V25.8271H137.682V52H134.483ZM142.032 52V25.8271H145.231V32.128L144.601 31.304C144.892 30.5285 145.271 29.8177 145.74 29.1714C146.208 28.509 146.717 27.9678 147.267 27.5477C147.945 26.95 148.737 26.4976 149.641 26.1906C150.546 25.8675 151.459 25.6817 152.38 25.6332C153.301 25.5686 154.141 25.6333 154.9 25.8271V29.1714C153.947 28.9291 152.905 28.8725 151.774 29.0018C150.643 29.131 149.601 29.5834 148.648 30.3589C147.775 31.0375 147.121 31.8533 146.685 32.8066C146.249 33.7436 145.958 34.7453 145.812 35.8116C145.667 36.8617 145.594 37.9038 145.594 38.9378V52H142.032ZM167.676 52.727C165.123 52.727 162.91 52.1616 161.036 51.0306C159.178 49.8997 157.732 48.3083 156.698 46.2565C155.664 44.2047 155.147 41.7974 155.147 39.0347C155.147 36.1751 155.656 33.7032 156.674 31.6191C157.691 29.5349 159.121 27.9274 160.963 26.7965C162.821 25.6656 165.01 25.1001 167.53 25.1001C170.115 25.1001 172.321 25.6979 174.146 26.8934C175.972 28.0728 177.353 29.7692 178.29 31.9826C179.227 34.196 179.656 36.8375 179.575 39.9072H175.94V38.647C175.875 35.2542 175.14 32.6935 173.734 30.9648C172.345 29.2361 170.309 28.3717 167.627 28.3717C164.816 28.3717 162.659 29.2845 161.157 31.1102C159.67 32.9358 158.927 35.5369 158.927 38.9136C158.927 42.2094 159.67 44.7701 161.157 46.5958C162.659 48.4053 164.784 49.31 167.53 49.31C169.405 49.31 171.036 48.8819 172.426 48.0256C173.831 47.1532 174.938 45.9011 175.746 44.2693L179.066 45.5537C178.032 47.8317 176.505 49.6008 174.486 50.861C172.482 52.105 170.212 52.727 167.676 52.727ZM157.667 39.9072V36.9264H177.66V39.9072H157.667Z" fill="#FFFFFE"/>
<path d="M182.529 52V17.1028H202.571V20.6652H186.092V32.7823H199.663V36.3205H186.092V52H182.529ZM205.014 20.8591V16.8605H208.577V20.8591H205.014ZM205.014 52V25.8271H208.577V52H205.014Z" fill="url(#paint2_linear_2025_48)"/>
<path d="M52.7291 67.6656L51.1271 62.1201H51.7163L53.0141 66.699L54.3042 62.124L54.8973 62.1201L56.1951 66.699L57.4852 62.1201H58.0782L56.48 67.6656H55.9101L54.6007 63.1176L53.2991 67.6656H52.7291ZM61.3635 67.6656V65.5437C61.3635 65.3127 61.3417 65.1009 61.298 64.9083C61.2544 64.7132 61.1838 64.5437 61.0862 64.4C60.9912 64.2536 60.8667 64.1407 60.7127 64.0611C60.5612 63.9815 60.3764 63.9417 60.1581 63.9417C59.9579 63.9417 59.7807 63.9764 59.6267 64.0457C59.4752 64.115 59.3469 64.2151 59.2416 64.3461C59.1389 64.4744 59.0606 64.631 59.0067 64.8159C58.9528 65.0007 58.9258 65.2113 58.9258 65.4474L58.5253 65.3589C58.5253 64.9327 58.5998 64.5745 58.7487 64.2844C58.8976 63.9943 59.103 63.7748 59.3648 63.6259C59.6267 63.477 59.9271 63.4025 60.266 63.4025C60.515 63.4025 60.7319 63.4411 60.9168 63.5181C61.1042 63.5951 61.2621 63.6991 61.3905 63.83C61.5214 63.9609 61.6267 64.1111 61.7063 64.2806C61.7858 64.4475 61.8436 64.6259 61.8796 64.8159C61.9155 65.0033 61.9335 65.1907 61.9335 65.3781V67.6656H61.3635ZM58.3559 67.6656V62.1201H58.868V65.251H58.9258V67.6656H58.3559ZM64.3076 67.7812C63.902 67.7812 63.5503 67.6913 63.2525 67.5116C62.9572 67.3319 62.7274 67.079 62.5631 66.753C62.3988 66.4269 62.3166 66.0444 62.3166 65.6053C62.3166 65.1509 62.3975 64.7581 62.5593 64.4269C62.721 64.0957 62.9482 63.8403 63.2409 63.6606C63.5361 63.4809 63.884 63.391 64.2845 63.391C64.6953 63.391 65.0458 63.486 65.3359 63.676C65.626 63.8634 65.8455 64.133 65.9944 64.4847C66.1433 64.8364 66.2113 65.2562 66.1985 65.744H65.6208V65.5437C65.6106 65.0046 65.4938 64.5977 65.2704 64.3229C65.0496 64.0482 64.7261 63.9109 64.2999 63.9109C63.8532 63.9109 63.5105 64.0559 63.2717 64.3461C63.0355 64.6362 62.9174 65.0495 62.9174 65.5861C62.9174 66.1098 63.0355 66.5168 63.2717 66.8069C63.5105 67.0944 63.8481 67.2382 64.2845 67.2382C64.5823 67.2382 64.8416 67.1701 65.0624 67.0341C65.2858 66.8954 65.4617 66.6965 65.59 66.4372L66.1176 66.6413C65.9533 67.0033 65.7107 67.2844 65.3898 67.4847C65.0714 67.6823 64.7107 67.7812 64.3076 67.7812ZM62.7172 65.744V65.2703H65.8943V65.744H62.7172ZM69.559 67.6656V65.5437C69.559 65.3127 69.5372 65.1009 69.4935 64.9083C69.4499 64.7132 69.3793 64.5437 69.2817 64.4C69.1867 64.2536 69.0622 64.1407 68.9082 64.0611C68.7567 63.9815 68.5719 63.9417 68.3536 63.9417C68.1534 63.9417 67.9762 63.9764 67.8222 64.0457C67.6707 64.115 67.5424 64.2151 67.4371 64.3461C67.3344 64.4744 67.2561 64.631 67.2022 64.8159C67.1483 65.0007 67.1213 65.2113 67.1213 65.4474L66.7208 65.3589C66.7208 64.9327 66.7952 64.5745 66.9442 64.2844C67.0931 63.9943 67.2985 63.7748 67.5603 63.6259C67.8222 63.477 68.1226 63.4025 68.4615 63.4025C68.7105 63.4025 68.9274 63.4411 69.1123 63.5181C69.2997 63.5951 69.4576 63.6991 69.586 63.83C69.7169 63.9609 69.8222 64.1111 69.9018 64.2806C69.9813 64.4475 70.0391 64.6259 70.0751 64.8159C70.111 65.0033 70.129 65.1907 70.129 65.3781V67.6656H69.559ZM66.5514 67.6656V63.5065H67.0635V64.5309H67.1213V67.6656H66.5514ZM71.977 67.6656V62.1201H72.5431V67.1227H75.1773V67.6656H71.977ZM75.5257 62.7171V62.0816H76.0918V62.7171H75.5257ZM75.5257 67.6656V63.5065H76.0918V67.6656H75.5257ZM77.2733 67.6656V63.1984C77.2733 63.0906 77.2784 62.9841 77.2887 62.8788C77.3016 62.7735 77.3259 62.6734 77.3619 62.5784C77.3978 62.4809 77.4543 62.391 77.5313 62.3088C77.6161 62.2164 77.7085 62.1497 77.8086 62.1086C77.9087 62.065 78.0127 62.0367 78.1205 62.0239C78.2309 62.011 78.3388 62.0046 78.444 62.0046H78.9755V62.4821H78.4825C78.2669 62.4821 78.1051 62.5348 77.9973 62.64C77.892 62.7453 77.8394 62.9109 77.8394 63.1368V67.6656H77.2733ZM76.5532 63.9918V63.5065H78.9755V63.9918H76.5532ZM80.816 67.7812C80.4103 67.7812 80.0586 67.6913 79.7608 67.5116C79.4655 67.3319 79.2358 67.079 79.0714 66.753C78.9071 66.4269 78.825 66.0444 78.825 65.6053C78.825 65.1509 78.9059 64.7581 79.0676 64.4269C79.2293 64.0957 79.4566 63.8403 79.7492 63.6606C80.0445 63.4809 80.3924 63.391 80.7929 63.391C81.2036 63.391 81.5541 63.486 81.8442 63.676C82.1343 63.8634 82.3538 64.133 82.5027 64.4847C82.6516 64.8364 82.7197 65.2562 82.7068 65.744H82.1292V65.5437C82.1189 65.0046 82.0021 64.5977 81.7787 64.3229C81.5579 64.0482 81.2345 63.9109 80.8083 63.9109C80.3615 63.9109 80.0188 64.0559 79.78 64.3461C79.5438 64.6362 79.4257 65.0495 79.4257 65.5861C79.4257 66.1098 79.5438 66.5168 79.78 66.8069C80.0188 67.0944 80.3564 67.2382 80.7929 67.2382C81.0907 67.2382 81.35 67.1701 81.5708 67.0341C81.7941 66.8954 81.97 66.6965 82.0984 66.4372L82.626 66.6413C82.4616 67.0033 82.219 67.2844 81.8981 67.4847C81.5798 67.6823 81.219 67.7812 80.816 67.7812ZM79.2255 65.744V65.2703H82.4026V65.744H79.2255ZM86.0931 67.7812C85.6875 67.7812 85.3357 67.6913 85.0379 67.5116C84.7427 67.3319 84.5129 67.079 84.3486 66.753C84.1843 66.4269 84.1021 66.0444 84.1021 65.6053C84.1021 65.1509 84.183 64.7581 84.3447 64.4269C84.5065 64.0957 84.7337 63.8403 85.0264 63.6606C85.3216 63.4809 85.6695 63.391 86.07 63.391C86.4808 63.391 86.8312 63.486 87.1213 63.676C87.4114 63.8634 87.631 64.133 87.7799 64.4847C87.9288 64.8364 87.9968 65.2562 87.984 65.744H87.4063V65.5437C87.396 65.0046 87.2792 64.5977 87.0559 64.3229C86.8351 64.0482 86.5116 63.9109 86.0854 63.9109C85.6387 63.9109 85.2959 64.0559 85.0572 64.3461C84.821 64.6362 84.7029 65.0495 84.7029 65.5861C84.7029 66.1098 84.821 66.5168 85.0572 66.8069C85.2959 67.0944 85.6335 67.2382 86.07 67.2382C86.3678 67.2382 86.6271 67.1701 86.8479 67.0341C87.0713 66.8954 87.2471 66.6965 87.3755 66.4372L87.9031 66.6413C87.7388 67.0033 87.4962 67.2844 87.1752 67.4847C86.8569 67.6823 86.4962 67.7812 86.0931 67.7812ZM84.5026 65.744V65.2703H87.6797V65.744H84.5026ZM91.3445 67.6656V65.5437C91.3445 65.3127 91.3227 65.1009 91.279 64.9083C91.2354 64.7132 91.1648 64.5437 91.0672 64.4C90.9722 64.2536 90.8477 64.1407 90.6937 64.0611C90.5422 63.9815 90.3573 63.9417 90.1391 63.9417C89.9388 63.9417 89.7617 63.9764 89.6077 64.0457C89.4562 64.115 89.3278 64.2151 89.2226 64.3461C89.1199 64.4744 89.0416 64.631 88.9876 64.8159C88.9337 65.0007 88.9068 65.2113 88.9068 65.4474L88.5063 65.3589C88.5063 64.9327 88.5807 64.5745 88.7296 64.2844C88.8785 63.9943 89.0839 63.7748 89.3458 63.6259C89.6077 63.477 89.908 63.4025 90.2469 63.4025C90.496 63.4025 90.7129 63.4411 90.8978 63.5181C91.0852 63.5951 91.2431 63.6991 91.3714 63.83C91.5024 63.9609 91.6076 64.1111 91.6872 64.2806C91.7668 64.4475 91.8246 64.6259 91.8605 64.8159C91.8965 65.0033 91.9144 65.1907 91.9144 65.3781V67.6656H91.3445ZM88.3368 67.6656V63.5065H88.849V64.5309H88.9068V67.6656H88.3368ZM94.1197 67.7812C93.732 67.7812 93.4008 67.6849 93.1261 67.4924C92.8514 67.2972 92.6409 67.0341 92.4946 66.7029C92.3482 66.3717 92.275 65.9981 92.275 65.5822C92.275 65.1689 92.3469 64.7966 92.4907 64.4654C92.637 64.1342 92.8463 63.8724 93.1184 63.6798C93.3906 63.4873 93.7166 63.391 94.0966 63.391C94.4868 63.391 94.8155 63.486 95.0825 63.676C95.3495 63.866 95.551 64.1265 95.6871 64.4577C95.8257 64.7864 95.895 65.1612 95.895 65.5822C95.895 65.9956 95.827 66.3691 95.6909 66.7029C95.5549 67.0341 95.3546 67.2972 95.0902 67.4924C94.8257 67.6849 94.5022 67.7812 94.1197 67.7812ZM94.1775 67.2536C94.4727 67.2536 94.7166 67.1817 94.9092 67.0379C95.1017 66.8942 95.2455 66.6965 95.3405 66.4449C95.4355 66.1907 95.483 65.9032 95.483 65.5822C95.483 65.2562 95.4355 64.9686 95.3405 64.7196C95.2455 64.468 95.1017 64.2716 94.9092 64.1304C94.7192 63.9892 94.4791 63.9186 94.189 63.9186C93.8912 63.9186 93.6447 63.9918 93.4496 64.1381C93.2545 64.2844 93.1094 64.4834 93.0144 64.735C92.922 64.9866 92.8758 65.269 92.8758 65.5822C92.8758 65.898 92.9233 66.183 93.0183 66.4372C93.1159 66.6888 93.2609 66.8877 93.4535 67.0341C93.646 67.1804 93.8874 67.2536 94.1775 67.2536ZM95.483 67.6656V64.5348H95.4213V62.1201H95.9913V67.6656H95.483ZM98.2386 67.7773C97.7508 67.7773 97.349 67.6721 97.0332 67.4615C96.72 67.251 96.5274 66.9583 96.4555 66.5835L97.0332 66.4872C97.0948 66.7234 97.2347 66.9121 97.453 67.0533C97.6737 67.192 97.9459 67.2613 98.2694 67.2613C98.5852 67.2613 98.8342 67.1958 99.0165 67.0649C99.1988 66.9314 99.2899 66.7504 99.2899 66.5219C99.2899 66.3935 99.2604 66.2895 99.2013 66.21C99.1448 66.1278 99.028 66.0521 98.8509 65.9827C98.6737 65.9134 98.4093 65.8313 98.0576 65.7363C97.6802 65.6336 97.3849 65.5309 97.1718 65.4282C96.9587 65.3255 96.8073 65.2074 96.7174 65.0739C96.6275 64.9378 96.5826 64.7722 96.5826 64.5771C96.5826 64.3409 96.6494 64.1342 96.7829 63.9571C96.9164 63.7774 97.1012 63.6387 97.3374 63.5412C97.5736 63.4411 97.8483 63.391 98.1615 63.391C98.4748 63.391 98.7546 63.4423 99.0011 63.545C99.2501 63.6452 99.4504 63.7864 99.6018 63.9686C99.7533 64.1509 99.8432 64.3627 99.8714 64.6041L99.2938 64.708C99.2552 64.4641 99.1333 64.2716 98.9279 64.1304C98.7251 63.9866 98.4671 63.9122 98.1538 63.907C97.8586 63.8993 97.6185 63.9558 97.4337 64.0765C97.2488 64.1946 97.1564 64.3525 97.1564 64.5502C97.1564 64.6606 97.1898 64.7555 97.2565 64.8351C97.3233 64.9122 97.444 64.9853 97.6185 65.0546C97.7957 65.124 98.0473 65.1997 98.3734 65.2819C98.7559 65.3794 99.0563 65.4821 99.2745 65.5899C99.4927 65.6978 99.648 65.8249 99.7405 65.9712C99.8329 66.1175 99.8791 66.2985 99.8791 66.5142C99.8791 66.907 99.7328 67.2164 99.4401 67.4423C99.15 67.6656 98.7495 67.7773 98.2386 67.7773ZM100.271 68.4705L100.306 68.1894C100.408 68.1971 100.483 68.1766 100.529 68.1278C100.575 68.079 100.604 68.0135 100.614 67.9314C100.624 67.8492 100.627 67.7606 100.622 67.6656H100.271V66.8531H100.93V67.8197C100.93 68.0559 100.869 68.233 100.749 68.3511C100.631 68.4692 100.471 68.509 100.271 68.4705ZM104.051 67.6656L102.781 63.5027L103.347 63.5065L104.333 66.7375L105.322 63.5065H105.838L106.828 66.7375L107.822 63.5065H108.384L107.113 67.6656H106.62L105.58 64.3538L104.544 67.6656H104.051ZM110.302 67.7812C109.896 67.7812 109.545 67.6913 109.247 67.5116C108.952 67.3319 108.722 67.079 108.557 66.753C108.393 66.4269 108.311 66.0444 108.311 65.6053C108.311 65.1509 108.392 64.7581 108.554 64.4269C108.715 64.0957 108.943 63.8403 109.235 63.6606C109.531 63.4809 109.878 63.391 110.279 63.391C110.69 63.391 111.04 63.486 111.33 63.676C111.62 63.8634 111.84 64.133 111.989 64.4847C112.138 64.8364 112.206 65.2562 112.193 65.744H111.615V65.5437C111.605 65.0046 111.488 64.5977 111.265 64.3229C111.044 64.0482 110.72 63.9109 110.294 63.9109C109.848 63.9109 109.505 64.0559 109.266 64.3461C109.03 64.6362 108.912 65.0495 108.912 65.5861C108.912 66.1098 109.03 66.5168 109.266 66.8069C109.505 67.0944 109.842 67.2382 110.279 67.2382C110.577 67.2382 110.836 67.1701 111.057 67.0341C111.28 66.8954 111.456 66.6965 111.584 66.4372L112.112 66.6413C111.948 67.0033 111.705 67.2844 111.384 67.4847C111.066 67.6823 110.705 67.7812 110.302 67.7812ZM108.712 65.744V65.2703H111.889V65.744H108.712ZM118.779 67.6656L118.783 64.9353C118.783 64.6143 118.693 64.3627 118.514 64.1805C118.336 63.9956 118.111 63.9032 117.836 63.9032C117.679 63.9032 117.526 63.9391 117.378 64.011C117.229 64.0829 117.105 64.1984 117.008 64.3576C116.913 64.5168 116.865 64.7247 116.865 64.9815L116.53 64.8852C116.523 64.5874 116.58 64.3268 116.704 64.1034C116.829 63.8801 117.001 63.7068 117.22 63.5835C117.44 63.4577 117.69 63.3948 117.967 63.3948C118.385 63.3948 118.72 63.5245 118.972 63.7838C119.224 64.0405 119.349 64.3884 119.349 64.8274L119.345 67.6656H118.779ZM113.815 67.6656V63.5065H114.324V64.5309H114.385V67.6656H113.815ZM116.303 67.6656L116.307 64.9738C116.307 64.6426 116.218 64.382 116.041 64.192C115.867 63.9995 115.636 63.9032 115.348 63.9032C115.061 63.9032 114.828 64.002 114.651 64.1997C114.474 64.3948 114.385 64.6554 114.385 64.9815L114.046 64.7966C114.046 64.5296 114.109 64.2909 114.235 64.0803C114.361 63.8672 114.533 63.7004 114.751 63.5797C114.969 63.4565 115.217 63.3948 115.494 63.3948C115.759 63.3948 115.994 63.4513 116.199 63.5643C116.407 63.6773 116.57 63.8416 116.688 64.0572C116.806 64.2729 116.865 64.5348 116.865 64.8428L116.862 67.6656H116.303ZM121.153 67.7812C120.84 67.7812 120.576 67.7247 120.363 67.6117C120.153 67.4988 119.995 67.3486 119.89 67.1612C119.784 66.9737 119.732 66.7696 119.732 66.5488C119.732 66.3229 119.777 66.1304 119.867 65.9712C119.959 65.8094 120.084 65.6772 120.24 65.5745C120.399 65.4718 120.583 65.3935 120.791 65.3396C121.001 65.2883 121.234 65.2433 121.488 65.2048C121.745 65.1638 121.995 65.1291 122.239 65.1009C122.485 65.07 122.701 65.0405 122.886 65.0123L122.686 65.1355C122.693 64.7247 122.614 64.4205 122.447 64.2228C122.28 64.0251 121.99 63.9263 121.576 63.9263C121.291 63.9263 121.05 63.9905 120.852 64.1188C120.657 64.2472 120.52 64.45 120.44 64.7273L119.89 64.5656C119.985 64.1933 120.176 63.9045 120.463 63.6991C120.751 63.4937 121.125 63.391 121.584 63.391C121.964 63.391 122.286 63.4629 122.551 63.6067C122.818 63.7479 123.006 63.9532 123.117 64.2228C123.168 64.3435 123.202 64.4783 123.217 64.6272C123.232 64.7761 123.24 64.9276 123.24 65.0816V67.6656H122.736V66.622L122.882 66.6836C122.741 67.0405 122.521 67.3126 122.223 67.5001C121.926 67.6875 121.569 67.7812 121.153 67.7812ZM121.218 67.2921C121.483 67.2921 121.714 67.2446 121.911 67.1496C122.109 67.0546 122.268 66.925 122.389 66.7607C122.51 66.5938 122.588 66.4064 122.624 66.1984C122.655 66.0649 122.671 65.9186 122.674 65.7594C122.677 65.5976 122.678 65.477 122.678 65.3974L122.893 65.5091C122.701 65.5347 122.492 65.5604 122.266 65.5861C122.042 65.6118 121.822 65.6413 121.603 65.6747C121.388 65.708 121.193 65.7478 121.018 65.794C120.9 65.8274 120.786 65.8749 120.675 65.9365C120.565 65.9956 120.474 66.0752 120.402 66.1753C120.333 66.2754 120.298 66.3999 120.298 66.5488C120.298 66.6695 120.327 66.7863 120.386 66.8993C120.448 67.0123 120.546 67.106 120.679 67.1804C120.815 67.2549 120.995 67.2921 121.218 67.2921ZM123.854 67.6656L123.858 62.1201H124.427V65.5091L126.284 63.5065H127.038L125.09 65.5861L127.293 67.6656H126.469L124.427 65.6631V67.6656H123.854ZM128.978 67.7812C128.572 67.7812 128.221 67.6913 127.923 67.5116C127.628 67.3319 127.398 67.079 127.234 66.753C127.069 66.4269 126.987 66.0444 126.987 65.6053C126.987 65.1509 127.068 64.7581 127.23 64.4269C127.391 64.0957 127.619 63.8403 127.911 63.6606C128.207 63.4809 128.554 63.391 128.955 63.391C129.366 63.391 129.716 63.486 130.006 63.676C130.296 63.8634 130.516 64.133 130.665 64.4847C130.814 64.8364 130.882 65.2562 130.869 65.744H130.291V65.5437C130.281 65.0046 130.164 64.5977 129.941 64.3229C129.72 64.0482 129.397 63.9109 128.97 63.9109C128.524 63.9109 128.181 64.0559 127.942 64.3461C127.706 64.6362 127.588 65.0495 127.588 65.5861C127.588 66.1098 127.706 66.5168 127.942 66.8069C128.181 67.0944 128.519 67.2382 128.955 67.2382C129.253 67.2382 129.512 67.1701 129.733 67.0341C129.956 66.8954 130.132 66.6965 130.26 66.4372L130.788 66.6413C130.624 67.0033 130.381 67.2844 130.06 67.4847C129.742 67.6823 129.381 67.7812 128.978 67.7812ZM127.388 65.744V65.2703H130.565V65.744H127.388ZM134.047 67.7773C133.559 67.7773 133.158 67.6721 132.842 67.4615C132.529 67.251 132.336 66.9583 132.264 66.5835L132.842 66.4872C132.903 66.7234 133.043 66.9121 133.262 67.0533C133.482 67.192 133.755 67.2613 134.078 67.2613C134.394 67.2613 134.643 67.1958 134.825 67.0649C135.007 66.9314 135.099 66.7504 135.099 66.5219C135.099 66.3935 135.069 66.2895 135.01 66.21C134.954 66.1278 134.837 66.0521 134.66 65.9827C134.482 65.9134 134.218 65.8313 133.866 65.7363C133.489 65.6336 133.194 65.5309 132.981 65.4282C132.767 65.3255 132.616 65.2074 132.526 65.0739C132.436 64.9378 132.391 64.7722 132.391 64.5771C132.391 64.3409 132.458 64.1342 132.592 63.9571C132.725 63.7774 132.91 63.6387 133.146 63.5412C133.382 63.4411 133.657 63.391 133.97 63.391C134.283 63.391 134.563 63.4423 134.81 63.545C135.059 63.6452 135.259 63.7864 135.411 63.9686C135.562 64.1509 135.652 64.3627 135.68 64.6041L135.102 64.708C135.064 64.4641 134.942 64.2716 134.737 64.1304C134.534 63.9866 134.276 63.9122 133.963 63.907C133.667 63.8993 133.427 63.9558 133.242 64.0765C133.058 64.1946 132.965 64.3525 132.965 64.5502C132.965 64.6606 132.998 64.7555 133.065 64.8351C133.132 64.9122 133.253 64.9853 133.427 65.0546C133.604 65.124 133.856 65.1997 134.182 65.2819C134.565 65.3794 134.865 65.4821 135.083 65.5899C135.301 65.6978 135.457 65.8249 135.549 65.9712C135.642 66.1175 135.688 66.2985 135.688 66.5142C135.688 66.907 135.541 67.2164 135.249 67.4423C134.959 67.6656 134.558 67.7773 134.047 67.7773ZM137.747 67.7696C137.498 67.7696 137.28 67.7311 137.093 67.6541C136.908 67.5771 136.75 67.4731 136.619 67.3422C136.491 67.2112 136.387 67.0623 136.307 66.8954C136.227 66.726 136.17 66.5476 136.134 66.3601C136.098 66.1702 136.08 65.9815 136.08 65.794V63.5065H136.65V65.6284C136.65 65.8569 136.672 66.0688 136.715 66.2639C136.759 66.459 136.828 66.6297 136.923 66.7761C137.021 66.9198 137.145 67.0315 137.297 67.1111C137.451 67.1907 137.637 67.2305 137.855 67.2305C138.055 67.2305 138.231 67.1958 138.383 67.1265C138.537 67.0572 138.665 66.9583 138.768 66.83C138.873 66.699 138.953 66.5411 139.007 66.3563C139.06 66.1689 139.087 65.9584 139.087 65.7247L139.488 65.8133C139.488 66.2395 139.413 66.5976 139.265 66.8877C139.116 67.1779 138.91 67.3974 138.648 67.5463C138.387 67.6952 138.086 67.7696 137.747 67.7696ZM139.145 67.6656V66.6413H139.087V63.5065H139.654V67.6656H139.145ZM140.345 67.6656V63.5065H140.853V64.5078L140.753 64.3769C140.799 64.2536 140.86 64.1407 140.934 64.038C141.008 63.9327 141.089 63.8467 141.177 63.7799C141.284 63.685 141.41 63.6131 141.554 63.5643C141.698 63.5129 141.843 63.4834 141.989 63.4757C142.136 63.4654 142.269 63.4757 142.39 63.5065V64.038C142.238 63.9995 142.073 63.9905 141.893 64.011C141.713 64.0315 141.548 64.1034 141.396 64.2267C141.257 64.3345 141.153 64.4641 141.084 64.6156C141.015 64.7645 140.969 64.9237 140.946 65.0932C140.922 65.26 140.911 65.4256 140.911 65.5899V67.6656H140.345ZM144.42 67.7812C144.014 67.7812 143.662 67.6913 143.365 67.5116C143.069 67.3319 142.84 67.079 142.675 66.753C142.511 66.4269 142.429 66.0444 142.429 65.6053C142.429 65.1509 142.51 64.7581 142.671 64.4269C142.833 64.0957 143.06 63.8403 143.353 63.6606C143.648 63.4809 143.996 63.391 144.397 63.391C144.808 63.391 145.158 63.486 145.448 63.676C145.738 63.8634 145.958 64.133 146.107 64.4847C146.256 64.8364 146.324 65.2562 146.311 65.744H145.733V65.5437C145.723 65.0046 145.606 64.5977 145.383 64.3229C145.162 64.0482 144.838 63.9109 144.412 63.9109C143.965 63.9109 143.623 64.0559 143.384 64.3461C143.148 64.6362 143.03 65.0495 143.03 65.5861C143.03 66.1098 143.148 66.5168 143.384 66.8069C143.623 67.0944 143.96 67.2382 144.397 67.2382C144.695 67.2382 144.954 67.1701 145.175 67.0341C145.398 66.8954 145.574 66.6965 145.702 66.4372L146.23 66.6413C146.066 67.0033 145.823 67.2844 145.502 67.4847C145.184 67.6823 144.823 67.7812 144.42 67.7812ZM142.829 65.744V65.2703H146.006V65.744H142.829ZM150.201 67.6656C149.968 67.7144 149.737 67.7337 149.508 67.7234C149.282 67.7131 149.08 67.6644 148.9 67.5771C148.723 67.4898 148.588 67.3537 148.495 67.1689C148.421 67.0148 148.38 66.8595 148.372 66.7029C148.367 66.5437 148.365 66.3627 148.365 66.1599V62.3512H148.927V66.1368C148.927 66.3114 148.928 66.4577 148.931 66.5758C148.936 66.6913 148.963 66.794 149.011 66.8839C149.104 67.0559 149.25 67.1586 149.451 67.192C149.653 67.2253 149.904 67.2176 150.201 67.1689V67.6656ZM147.475 63.9918V63.5065H150.201V63.9918H147.475ZM153.64 67.6656V65.5437C153.64 65.3127 153.618 65.1009 153.574 64.9083C153.53 64.7132 153.46 64.5437 153.362 64.4C153.267 64.2536 153.143 64.1407 152.989 64.0611C152.837 63.9815 152.652 63.9417 152.434 63.9417C152.234 63.9417 152.057 63.9764 151.903 64.0457C151.751 64.115 151.623 64.2151 151.518 64.3461C151.415 64.4744 151.337 64.631 151.283 64.8159C151.229 65.0007 151.202 65.2113 151.202 65.4474L150.801 65.3589C150.801 64.9327 150.876 64.5745 151.025 64.2844C151.174 63.9943 151.379 63.7748 151.641 63.6259C151.903 63.477 152.203 63.4025 152.542 63.4025C152.791 63.4025 153.008 63.4411 153.193 63.5181C153.38 63.5951 153.538 63.6991 153.667 63.83C153.797 63.9609 153.903 64.1111 153.982 64.2806C154.062 64.4475 154.12 64.6259 154.156 64.8159C154.192 65.0033 154.21 65.1907 154.21 65.3781V67.6656H153.64ZM150.632 67.6656V62.1201H151.144V65.251H151.202V67.6656H150.632ZM156.584 67.7812C156.178 67.7812 155.826 67.6913 155.529 67.5116C155.233 67.3319 155.004 67.079 154.839 66.753C154.675 66.4269 154.593 66.0444 154.593 65.6053C154.593 65.1509 154.674 64.7581 154.835 64.4269C154.997 64.0957 155.224 63.8403 155.517 63.6606C155.812 63.4809 156.16 63.391 156.561 63.391C156.971 63.391 157.322 63.486 157.612 63.676C157.902 63.8634 158.122 64.133 158.27 64.4847C158.419 64.8364 158.487 65.2562 158.475 65.744H157.897V65.5437C157.887 65.0046 157.77 64.5977 157.546 64.3229C157.326 64.0482 157.002 63.9109 156.576 63.9109C156.129 63.9109 155.787 64.0559 155.548 64.3461C155.312 64.6362 155.193 65.0495 155.193 65.5861C155.193 66.1098 155.312 66.5168 155.548 66.8069C155.787 67.0944 156.124 67.2382 156.561 67.2382C156.858 67.2382 157.118 67.1701 157.339 67.0341C157.562 66.8954 157.738 66.6965 157.866 66.4372L158.394 66.6413C158.229 67.0033 157.987 67.2844 157.666 67.4847C157.348 67.6823 156.987 67.7812 156.584 67.7812ZM154.993 65.744V65.2703H158.17V65.744H154.993ZM165.061 67.6656L165.065 64.9353C165.065 64.6143 164.975 64.3627 164.795 64.1805C164.618 63.9956 164.392 63.9032 164.118 63.9032C163.961 63.9032 163.808 63.9391 163.659 64.011C163.51 64.0829 163.387 64.1984 163.29 64.3576C163.195 64.5168 163.147 64.7247 163.147 64.9815L162.812 64.8852C162.804 64.5874 162.862 64.3268 162.985 64.1034C163.111 63.8801 163.283 63.7068 163.501 63.5835C163.722 63.4577 163.971 63.3948 164.248 63.3948C164.667 63.3948 165.002 63.5245 165.254 63.7838C165.505 64.0405 165.631 64.3884 165.631 64.8274L165.627 67.6656H165.061ZM160.097 67.6656V63.5065H160.605V64.5309H160.667V67.6656H160.097ZM162.585 67.6656L162.589 64.9738C162.589 64.6426 162.5 64.382 162.323 64.192C162.148 63.9995 161.917 63.9032 161.63 63.9032C161.342 63.9032 161.11 64.002 160.933 64.1997C160.756 64.3948 160.667 64.6554 160.667 64.9815L160.328 64.7966C160.328 64.5296 160.391 64.2909 160.517 64.0803C160.643 63.8672 160.815 63.7004 161.033 63.5797C161.251 63.4565 161.499 63.3948 161.776 63.3948C162.041 63.3948 162.275 63.4513 162.481 63.5643C162.689 63.6773 162.852 63.8416 162.97 64.0572C163.088 64.2729 163.147 64.5348 163.147 64.8428L163.143 67.6656H162.585ZM167.959 67.7812C167.545 67.7812 167.192 67.6875 166.9 67.5001C166.607 67.3126 166.382 67.0533 166.226 66.7221C166.069 66.391 165.991 66.011 165.991 65.5822C165.991 65.1458 166.071 64.7632 166.23 64.4346C166.389 64.106 166.615 63.8506 166.907 63.6683C167.203 63.4834 167.553 63.391 167.959 63.391C168.375 63.391 168.729 63.4847 169.022 63.6721C169.317 63.857 169.542 64.115 169.696 64.4462C169.852 64.7748 169.931 65.1535 169.931 65.5822C169.931 66.0187 169.852 66.4025 169.696 66.7337C169.539 67.0623 169.313 67.3191 169.018 67.5039C168.723 67.6888 168.37 67.7812 167.959 67.7812ZM167.959 67.2382C168.421 67.2382 168.765 67.0854 168.991 66.7799C169.217 66.4718 169.33 66.0726 169.33 65.5822C169.33 65.079 169.216 64.6785 168.987 64.3807C168.761 64.0829 168.418 63.934 167.959 63.934C167.648 63.934 167.391 64.0046 167.189 64.1458C166.988 64.2844 166.838 64.4783 166.738 64.7273C166.64 64.9738 166.592 65.2587 166.592 65.5822C166.592 66.0829 166.707 66.4847 166.938 66.7876C167.169 67.088 167.51 67.2382 167.959 67.2382ZM173.399 67.6656V65.5437C173.399 65.3127 173.377 65.1009 173.333 64.9083C173.29 64.7132 173.219 64.5437 173.121 64.4C173.026 64.2536 172.902 64.1407 172.748 64.0611C172.596 63.9815 172.412 63.9417 172.193 63.9417C171.993 63.9417 171.816 63.9764 171.662 64.0457C171.51 64.115 171.382 64.2151 171.277 64.3461C171.174 64.4744 171.096 64.631 171.042 64.8159C170.988 65.0007 170.961 65.2113 170.961 65.4474L170.561 65.3589C170.561 64.9327 170.635 64.5745 170.784 64.2844C170.933 63.9943 171.138 63.7748 171.4 63.6259C171.662 63.477 171.962 63.4025 172.301 63.4025C172.55 63.4025 172.767 63.4411 172.952 63.5181C173.139 63.5951 173.297 63.6991 173.426 63.83C173.557 63.9609 173.662 64.1111 173.741 64.2806C173.821 64.4475 173.879 64.6259 173.915 64.8159C173.951 65.0033 173.969 65.1907 173.969 65.3781V67.6656H173.399ZM170.391 67.6656V63.5065H170.903V64.5309H170.961V67.6656H170.391ZM176.32 67.7812C175.915 67.7812 175.563 67.6913 175.265 67.5116C174.97 67.3319 174.74 67.079 174.576 66.753C174.411 66.4269 174.329 66.0444 174.329 65.6053C174.329 65.1509 174.41 64.7581 174.572 64.4269C174.734 64.0957 174.961 63.8403 175.254 63.6606C175.549 63.4809 175.897 63.391 176.297 63.391C176.708 63.391 177.058 63.486 177.349 63.676C177.639 63.8634 177.858 64.133 178.007 64.4847C178.156 64.8364 178.224 65.2562 178.211 65.744H177.634V65.5437C177.623 65.0046 177.506 64.5977 177.283 64.3229C177.062 64.0482 176.739 63.9109 176.313 63.9109C175.866 63.9109 175.523 64.0559 175.284 64.3461C175.048 64.6362 174.93 65.0495 174.93 65.5861C174.93 66.1098 175.048 66.5168 175.284 66.8069C175.523 67.0944 175.861 67.2382 176.297 67.2382C176.595 67.2382 176.854 67.1701 177.075 67.0341C177.298 66.8954 177.474 66.6965 177.603 66.4372L178.13 66.6413C177.966 67.0033 177.723 67.2844 177.402 67.4847C177.084 67.6823 176.723 67.7812 176.32 67.7812ZM174.73 65.744V65.2703H177.907V65.744H174.73ZM179.199 69.5141L180.003 67.3306L180.015 67.9776L178.193 63.5065H178.794L180.288 67.2459H180.042L181.421 63.5065H181.998L179.765 69.5141H179.199ZM185.052 67.7812C184.665 67.7812 184.334 67.6849 184.059 67.4924C183.784 67.2972 183.574 67.0341 183.427 66.7029C183.281 66.3717 183.208 65.9981 183.208 65.5822C183.208 65.1689 183.28 64.7966 183.423 64.4654C183.57 64.1342 183.779 63.8724 184.051 63.6798C184.323 63.4873 184.649 63.391 185.029 63.391C185.42 63.391 185.748 63.486 186.015 63.676C186.282 63.866 186.484 64.1265 186.62 64.4577C186.758 64.7864 186.828 65.1612 186.828 65.5822C186.828 65.9956 186.76 66.3691 186.624 66.7029C186.488 67.0341 186.287 67.2972 186.023 67.4924C185.758 67.6849 185.435 67.7812 185.052 67.7812ZM185.11 67.2536C185.405 67.2536 185.649 67.1817 185.842 67.0379C186.034 66.8942 186.178 66.6965 186.273 66.4449C186.368 66.1907 186.416 65.9032 186.416 65.5822C186.416 65.2562 186.368 64.9686 186.273 64.7196C186.178 64.468 186.034 64.2716 185.842 64.1304C185.652 63.9892 185.412 63.9186 185.122 63.9186C184.824 63.9186 184.577 63.9918 184.382 64.1381C184.187 64.2844 184.042 64.4834 183.947 64.735C183.855 64.9866 183.809 65.269 183.809 65.5822C183.809 65.898 183.856 66.183 183.951 66.4372C184.049 66.6888 184.194 66.8877 184.386 67.0341C184.579 67.1804 184.82 67.2536 185.11 67.2536ZM186.416 67.6656V64.5348H186.354V62.1201H186.924V67.6656H186.416ZM189.356 67.7812C188.943 67.7812 188.59 67.6875 188.297 67.5001C188.004 67.3126 187.78 67.0533 187.623 66.7221C187.467 66.391 187.388 66.011 187.388 65.5822C187.388 65.1458 187.468 64.7632 187.627 64.4346C187.786 64.106 188.012 63.8506 188.305 63.6683C188.6 63.4834 188.951 63.391 189.356 63.391C189.772 63.391 190.126 63.4847 190.419 63.6721C190.714 63.857 190.939 64.115 191.093 64.4462C191.25 64.7748 191.328 65.1535 191.328 65.5822C191.328 66.0187 191.25 66.4025 191.093 66.7337C190.936 67.0623 190.71 67.3191 190.415 67.5039C190.12 67.6888 189.767 67.7812 189.356 67.7812ZM189.356 67.2382C189.818 67.2382 190.162 67.0854 190.388 66.7799C190.614 66.4718 190.727 66.0726 190.727 65.5822C190.727 65.079 190.613 64.6785 190.384 64.3807C190.158 64.0829 189.816 63.934 189.356 63.934C189.046 63.934 188.789 64.0046 188.586 64.1458C188.386 64.2844 188.235 64.4783 188.135 64.7273C188.038 64.9738 187.989 65.2587 187.989 65.5822C187.989 66.0829 188.105 66.4847 188.336 66.7876C188.567 67.088 188.907 67.2382 189.356 67.2382ZM193.552 67.7812C193.147 67.7812 192.795 67.6913 192.497 67.5116C192.202 67.3319 191.972 67.079 191.808 66.753C191.643 66.4269 191.561 66.0444 191.561 65.6053C191.561 65.1509 191.642 64.7581 191.804 64.4269C191.966 64.0957 192.193 63.8403 192.485 63.6606C192.781 63.4809 193.129 63.391 193.529 63.391C193.94 63.391 194.29 63.486 194.58 63.676C194.871 63.8634 195.09 64.133 195.239 64.4847C195.388 64.8364 195.456 65.2562 195.443 65.744H194.865V65.5437C194.855 65.0046 194.738 64.5977 194.515 64.3229C194.294 64.0482 193.971 63.9109 193.545 63.9109C193.098 63.9109 192.755 64.0559 192.516 64.3461C192.28 64.6362 192.162 65.0495 192.162 65.5861C192.162 66.1098 192.28 66.5168 192.516 66.8069C192.755 67.0944 193.093 67.2382 193.529 67.2382C193.827 67.2382 194.086 67.1701 194.307 67.0341C194.53 66.8954 194.706 66.6965 194.835 66.4372L195.362 66.6413C195.198 67.0033 194.955 67.2844 194.634 67.4847C194.316 67.6823 193.955 67.7812 193.552 67.7812ZM191.962 65.744V65.2703H195.139V65.744H191.962ZM197.465 67.7773C196.977 67.7773 196.575 67.6721 196.259 67.4615C195.946 67.251 195.753 66.9583 195.682 66.5835L196.259 66.4872C196.321 66.7234 196.461 66.9121 196.679 67.0533C196.9 67.192 197.172 67.2613 197.495 67.2613C197.811 67.2613 198.06 67.1958 198.242 67.0649C198.425 66.9314 198.516 66.7504 198.516 66.5219C198.516 66.3935 198.486 66.2895 198.427 66.21C198.371 66.1278 198.254 66.0521 198.077 65.9827C197.9 65.9134 197.635 65.8313 197.284 65.7363C196.906 65.6336 196.611 65.5309 196.398 65.4282C196.185 65.3255 196.033 65.2074 195.943 65.0739C195.854 64.9378 195.809 64.7722 195.809 64.5771C195.809 64.3409 195.875 64.1342 196.009 63.9571C196.142 63.7774 196.327 63.6387 196.563 63.5412C196.8 63.4411 197.074 63.391 197.388 63.391C197.701 63.391 197.981 63.4423 198.227 63.545C198.476 63.6452 198.676 63.7864 198.828 63.9686C198.979 64.1509 199.069 64.3627 199.097 64.6041L198.52 64.708C198.481 64.4641 198.359 64.2716 198.154 64.1304C197.951 63.9866 197.693 63.9122 197.38 63.907C197.085 63.8993 196.845 63.9558 196.66 64.0765C196.475 64.1946 196.382 64.3525 196.382 64.5502C196.382 64.6606 196.416 64.7555 196.483 64.8351C196.549 64.9122 196.67 64.9853 196.845 65.0546C197.022 65.124 197.273 65.1997 197.599 65.2819C197.982 65.3794 198.282 65.4821 198.501 65.5899C198.719 65.6978 198.874 65.8249 198.966 65.9712C199.059 66.1175 199.105 66.2985 199.105 66.5142C199.105 66.907 198.959 67.2164 198.666 67.4423C198.376 67.6656 197.975 67.7773 197.465 67.7773ZM202.578 67.6656V65.5437C202.578 65.3127 202.556 65.1009 202.512 64.9083C202.469 64.7132 202.398 64.5437 202.301 64.4C202.206 64.2536 202.081 64.1407 201.927 64.0611C201.776 63.9815 201.591 63.9417 201.373 63.9417C201.172 63.9417 200.995 63.9764 200.841 64.0457C200.69 64.115 200.561 64.2151 200.456 64.3461C200.353 64.4744 200.275 64.631 200.221 64.8159C200.167 65.0007 200.14 65.2113 200.14 65.4474L199.74 65.3589C199.74 64.9327 199.814 64.5745 199.963 64.2844C200.112 63.9943 200.317 63.7748 200.579 63.6259C200.841 63.477 201.141 63.4025 201.48 63.4025C201.729 63.4025 201.946 63.4411 202.131 63.5181C202.319 63.5951 202.477 63.6991 202.605 63.83C202.736 63.9609 202.841 64.1111 202.921 64.2806C203 64.4475 203.058 64.6259 203.094 64.8159C203.13 65.0033 203.148 65.1907 203.148 65.3781V67.6656H202.578ZM199.57 67.6656V63.5065H200.082V64.5309H200.14V67.6656H199.57ZM203.454 63.7376L203.488 63.4565C203.591 63.4642 203.666 63.4436 203.712 63.3948C203.758 63.3461 203.786 63.2806 203.796 63.1984C203.807 63.1163 203.809 63.0277 203.804 62.9327H203.454V62.1201H204.112V63.0868C204.112 63.323 204.052 63.5001 203.931 63.6182C203.813 63.7363 203.654 63.7761 203.454 63.7376ZM207.04 67.6656C206.807 67.7144 206.576 67.7337 206.347 67.7234C206.121 67.7131 205.918 67.6644 205.739 67.5771C205.562 67.4898 205.427 67.3537 205.334 67.1689C205.26 67.0148 205.219 66.8595 205.211 66.7029C205.206 66.5437 205.203 66.3627 205.203 66.1599V62.3512H205.766V66.1368C205.766 66.3114 205.767 66.4577 205.77 66.5758C205.775 66.6913 205.802 66.794 205.85 66.8839C205.943 67.0559 206.089 67.1586 206.289 67.192C206.492 67.2253 206.743 67.2176 207.04 67.1689V67.6656ZM204.314 63.9918V63.5065H207.04V63.9918H204.314ZM207.583 67.6656V67.0071H208.241V67.6656H207.583Z" fill="white"/>
<defs>
<linearGradient id="paint0_linear_2025_48" x1="11.7188" y1="19.6197" x2="48.3687" y2="19.6197" gradientUnits="userSpaceOnUse">
<stop stop-color="#01BDC1"/>
<stop offset="1" stop-color="#1D73BD"/>
</linearGradient>
<linearGradient id="paint1_linear_2025_48" x1="52.2544" y1="35.6667" x2="74.6668" y2="35.6667" gradientUnits="userSpaceOnUse">
<stop stop-color="#01BDC1"/>
<stop offset="1" stop-color="#1D73BD"/>
</linearGradient>
<linearGradient id="paint2_linear_2025_48" x1="184" y1="32.5" x2="213" y2="33" gradientUnits="userSpaceOnUse">
<stop stop-color="#01BDC1"/>
<stop offset="1" stop-color="#1D73BD"/>
</linearGradient>
</defs>
</svg>
