<svg width="213" height="66" viewBox="0 0 213 66" fill="none" xmlns="http://www.w3.org/2000/svg">
<path d="M38.036 35.906L26.7026 24.5728L11.7026 56.906L3.70183 45.906C-1.36483 39.2393 -0.0792057 33.6667 0.920898 32.3334L11.7194 20.9807L25.8792 6.09412C27.2652 5.08238 29.0747 3.91034 30.3693 3.57262C36.5026 1.97262 45.9249 8.7949 48.3693 12.2393L38.036 35.906Z" fill="#FFFFFE"/>
<path d="M26.702 24.5728C22.1687 20.0394 15.9685 17.9066 11.7188 20.9807L25.8786 6.09412C27.2646 5.08238 29.0741 3.91034 30.3687 3.57262C36.502 1.97262 45.9242 8.7949 48.3687 12.2393L38.0354 35.906L26.702 24.5728Z" fill="url(#paint0_linear_2025_41)"/>
<path d="M28 33.5L39.5 45L53 14.5L52.2541 56.6667H74.6665" stroke="#FFFFFE" stroke-width="3.33333" stroke-linecap="round" stroke-linejoin="round"/>
<path d="M54.7497 14.5309C54.7668 13.5646 53.9973 12.7674 53.0309 12.7503C52.0646 12.7332 51.2674 13.5027 51.2503 14.4691L54.7497 14.5309ZM52.2544 56.6667L50.5047 56.6358C50.4964 57.1052 50.677 57.5583 51.0061 57.8932C51.3351 58.2281 51.7849 58.4167 52.2544 58.4167V56.6667ZM207.5 58.4167H209.25V54.9167H207.5V58.4167ZM51.2503 14.4691L50.5047 56.6358L54.0041 56.6977L54.7497 14.5309L51.2503 14.4691ZM52.2544 58.4167H207.5V54.9167H52.2544V58.4167Z" fill="url(#paint1_linear_2025_41)"/>
<path d="M57.877 52V17.1028H61.4394V52H57.877ZM85.1839 52V38.647C85.1839 37.1929 85.0466 35.8601 84.772 34.6484C84.4973 33.4205 84.053 32.3542 83.4391 31.4494C82.8413 30.5285 82.0577 29.8177 81.0884 29.3168C80.1352 28.816 78.9719 28.5656 77.5986 28.5656C76.3385 28.5656 75.2237 28.7837 74.2543 29.2199C73.3011 29.6561 72.4933 30.2862 71.8309 31.1102C71.1847 31.918 70.6919 32.9035 70.3526 34.0667C70.0134 35.23 69.8437 36.5548 69.8437 38.0411L67.3234 37.4837C67.3234 34.8018 67.7919 32.5481 68.7289 30.7224C69.666 28.8968 70.9585 27.5154 72.6064 26.5784C74.2543 25.6413 76.1446 25.1728 78.2772 25.1728C79.8443 25.1728 81.2095 25.4151 82.3728 25.8998C83.5522 26.3845 84.5458 27.0388 85.3536 27.8628C86.1775 28.6868 86.8399 29.6319 87.3408 30.6982C87.8416 31.7483 88.2051 32.8712 88.4313 34.0667C88.6575 35.2461 88.7706 36.4255 88.7706 37.6049V52H85.1839ZM66.2571 52V25.8271H69.4802V32.2734H69.8437V52H66.2571ZM102.402 52.7028C99.3326 52.7028 96.8042 52.0404 94.817 50.7156C92.846 49.3908 91.6343 47.549 91.1819 45.1902L94.817 44.5844C95.2048 46.0707 96.0853 47.2582 97.4585 48.1468C98.848 49.0192 100.56 49.4554 102.596 49.4554C104.583 49.4554 106.151 49.0434 107.298 48.2195C108.445 47.3794 109.018 46.2404 109.018 44.8025C109.018 43.9947 108.832 43.3403 108.461 42.8395C108.105 42.3225 107.37 41.8459 106.256 41.4097C105.141 40.9735 103.477 40.4565 101.263 39.8587C98.8883 39.2124 97.0304 38.5662 95.6894 37.92C94.3485 37.2737 93.3953 36.5305 92.8298 35.6904C92.2643 34.8341 91.9816 33.7921 91.9816 32.5642C91.9816 31.0779 92.4017 29.7773 93.2418 28.6625C94.0819 27.5316 95.2451 26.6592 96.7315 26.0452C98.2179 25.4151 99.9466 25.1001 101.918 25.1001C103.889 25.1001 105.65 25.4232 107.201 26.0695C108.768 26.6996 110.028 27.5881 110.981 28.7352C111.934 29.8823 112.5 31.2152 112.678 32.7339L109.042 33.3882C108.8 31.8533 108.033 30.6416 106.74 29.7531C105.464 28.8483 103.84 28.3798 101.869 28.3475C100.011 28.299 98.5006 28.6544 97.3374 29.4138C96.1741 30.157 95.5925 31.1506 95.5925 32.3946C95.5925 33.0893 95.8025 33.6871 96.2226 34.1879C96.6426 34.6726 97.402 35.133 98.5006 35.5692C99.6154 36.0055 101.199 36.4821 103.25 36.9991C105.658 37.613 107.548 38.2592 108.921 38.9378C110.295 39.6164 111.272 40.4161 111.854 41.337C112.435 42.2579 112.726 43.3969 112.726 44.754C112.726 47.2259 111.805 49.1727 109.963 50.5944C108.138 52 105.617 52.7028 102.402 52.7028ZM125.686 52.6543C124.119 52.6543 122.746 52.412 121.566 51.9273C120.403 51.4426 119.409 50.7883 118.585 49.9643C117.778 49.1404 117.123 48.2033 116.622 47.1532C116.122 46.0869 115.758 44.964 115.532 43.7846C115.306 42.5891 115.193 41.4016 115.193 40.2222V25.8271H118.779V39.1801C118.779 40.618 118.917 41.9509 119.191 43.1788C119.466 44.4066 119.902 45.481 120.5 46.4019C121.114 47.3067 121.897 48.0094 122.851 48.5103C123.82 49.0111 124.991 49.2615 126.365 49.2615C127.625 49.2615 128.731 49.0434 129.685 48.6072C130.654 48.171 131.462 47.549 132.108 46.7412C132.77 45.9172 133.271 44.9236 133.611 43.7604C133.95 42.581 134.119 41.2562 134.119 39.786L136.64 40.3434C136.64 43.0253 136.171 45.2791 135.234 47.1047C134.297 48.9303 133.005 50.3117 131.357 51.2487C129.709 52.1858 127.819 52.6543 125.686 52.6543ZM134.483 52V45.5537H134.119V25.8271H137.682V52H134.483ZM142.032 52V25.8271H145.231V32.128L144.601 31.304C144.892 30.5285 145.271 29.8177 145.74 29.1714C146.208 28.509 146.717 27.9678 147.267 27.5477C147.945 26.95 148.737 26.4976 149.641 26.1906C150.546 25.8675 151.459 25.6817 152.38 25.6332C153.301 25.5686 154.141 25.6333 154.9 25.8271V29.1714C153.947 28.9291 152.905 28.8725 151.774 29.0018C150.643 29.131 149.601 29.5834 148.648 30.3589C147.775 31.0375 147.121 31.8533 146.685 32.8066C146.249 33.7436 145.958 34.7453 145.812 35.8116C145.667 36.8617 145.594 37.9038 145.594 38.9378V52H142.032ZM167.676 52.727C165.123 52.727 162.91 52.1616 161.036 51.0306C159.178 49.8997 157.732 48.3083 156.698 46.2565C155.664 44.2047 155.147 41.7974 155.147 39.0347C155.147 36.1751 155.656 33.7032 156.674 31.6191C157.691 29.5349 159.121 27.9274 160.963 26.7965C162.821 25.6656 165.01 25.1001 167.53 25.1001C170.115 25.1001 172.321 25.6979 174.146 26.8934C175.972 28.0728 177.353 29.7692 178.29 31.9826C179.227 34.196 179.656 36.8375 179.575 39.9072H175.94V38.647C175.875 35.2542 175.14 32.6935 173.734 30.9648C172.345 29.2361 170.309 28.3717 167.627 28.3717C164.816 28.3717 162.659 29.2845 161.157 31.1102C159.67 32.9358 158.927 35.5369 158.927 38.9136C158.927 42.2094 159.67 44.7701 161.157 46.5958C162.659 48.4053 164.784 49.31 167.53 49.31C169.405 49.31 171.036 48.8819 172.426 48.0256C173.831 47.1532 174.938 45.9011 175.746 44.2693L179.066 45.5537C178.032 47.8317 176.505 49.6008 174.486 50.861C172.482 52.105 170.212 52.727 167.676 52.727ZM157.667 39.9072V36.9264H177.66V39.9072H157.667Z" fill="#FFFFFE"/>
<path d="M182.529 52V17.1028H202.571V20.6652H186.092V32.7823H199.663V36.3205H186.092V52H182.529ZM205.014 20.8591V16.8605H208.577V20.8591H205.014ZM205.014 52V25.8271H208.577V52H205.014Z" fill="url(#paint2_linear_2025_41)"/>
<defs>
<linearGradient id="paint0_linear_2025_41" x1="11.7188" y1="19.6197" x2="48.3687" y2="19.6197" gradientUnits="userSpaceOnUse">
<stop stop-color="#01BDC1"/>
<stop offset="1" stop-color="#1D73BD"/>
</linearGradient>
<linearGradient id="paint1_linear_2025_41" x1="52.2544" y1="35.6667" x2="74.6668" y2="35.6667" gradientUnits="userSpaceOnUse">
<stop stop-color="#01BDC1"/>
<stop offset="1" stop-color="#1D73BD"/>
</linearGradient>
<linearGradient id="paint2_linear_2025_41" x1="184" y1="32.5" x2="213" y2="33" gradientUnits="userSpaceOnUse">
<stop stop-color="#01BDC1"/>
<stop offset="1" stop-color="#1D73BD"/>
</linearGradient>
</defs>
</svg>
